<svg width="121" height="45" viewBox="0 0 121 45" fill="none" xmlns="http://www.w3.org/2000/svg">
<path d="M2.62872 37.9238H3.57303V40.816H7.19269V37.9238H8.10576V44.6725H7.19269V41.5873H3.57303V44.6725H2.62872V37.9238Z" fill="#AAAAAA"/>
<path d="M22.7428 42.2303C22.7428 43.9335 21.7354 44.833 20.0043 44.833C18.2417 44.833 17.1714 44.0298 17.1714 42.2303V37.9238H18.1157V42.2303C18.1157 43.419 18.8084 44.0943 20.0043 44.0943C21.169 44.0943 21.8301 43.419 21.8301 42.2303V37.9238H22.7428V42.2303V42.2303Z" fill="#AAAAAA"/>
<path d="M34.1698 44.8654C32.092 44.9936 30.8329 43.1941 30.8329 41.4269C30.8329 39.4662 31.9345 37.7634 34.1378 37.7634C35.6489 37.7634 36.8451 38.4061 37.0971 40.0129H36.184C35.9949 38.9843 35.145 38.5021 34.1378 38.5021C32.4384 38.5021 31.7457 39.9484 31.7457 41.3947C31.7457 42.8083 32.6272 44.1582 34.2957 44.1263C35.1453 44.0941 35.838 43.9336 36.1844 43.355C36.436 43.0014 36.3731 42.3591 36.3416 41.8769H34.1382V41.1055H37.1602C37.1602 41.1055 37.1602 42.8728 37.1602 43.6441C36.3731 44.6404 35.4288 44.8012 34.1698 44.8654Z" fill="#AAAAAA"/>
<path d="M48.4608 44.0944C50.129 44.0944 50.8533 42.6482 50.8533 41.2983C50.8533 39.9484 50.129 38.5021 48.4608 38.5021C46.7609 38.5021 46.0682 39.9484 46.0682 41.2983C46.0682 42.6482 46.7609 44.0944 48.4608 44.0944ZM48.4608 37.7634C50.6641 37.7634 51.7657 39.4662 51.7657 41.2983C51.7657 43.13 50.6641 44.8331 48.4608 44.8331C46.2574 44.8331 45.1555 43.13 45.1555 41.2983C45.1555 39.4662 46.2574 37.7634 48.4608 37.7634Z" fill="#AAAAAA"/>
<path d="M70.3063 40.8163H72.1317C73.1704 40.8163 73.6115 40.4624 73.6115 39.7556C73.6115 38.8238 72.9504 38.6629 72.1317 38.6629H70.3063V40.8163V40.8163ZM70.3063 43.9335H72.604C73.3908 43.9335 73.8947 43.4516 73.8947 42.7122C73.8947 41.8442 73.1708 41.5873 72.3837 41.5873H70.3063V43.9335V43.9335ZM69.3932 37.9238H71.8801C72.5096 37.9238 73.296 37.9238 73.7055 38.1488C74.1775 38.4383 74.5239 38.9201 74.5239 39.5628C74.5239 40.3015 74.1459 40.8482 73.5164 41.1054C74.3663 41.2659 74.839 41.9086 74.839 42.7444C74.839 43.7404 74.0835 44.6725 72.7297 44.6725H69.3932V37.9238Z" fill="#AAAAAA"/>
<path d="M86.3914 44.0944C88.0913 44.0944 88.784 42.6482 88.784 41.2983C88.784 39.9484 88.0913 38.5021 86.3914 38.5021C84.7232 38.5021 83.9993 39.9484 83.9993 41.2983C83.9993 42.6482 84.7232 44.0944 86.3914 44.0944ZM86.3914 37.7634C88.5948 37.7634 89.7283 39.4662 89.7283 41.2983C89.7283 43.13 88.5948 44.8331 86.3914 44.8331C84.1881 44.8331 83.0865 43.13 83.0865 41.2983C83.0865 39.4662 84.1881 37.7634 86.3914 37.7634Z" fill="#AAAAAA"/>
<path d="M102.414 39.916C102.32 38.9201 101.658 38.502 100.714 38.502C99.9272 38.502 99.1713 38.7915 99.1713 39.6588C99.1713 40.4946 100.273 40.6232 101.375 40.8801C102.477 41.1054 103.578 41.4909 103.578 42.8404C103.578 44.2544 102.13 44.8326 100.871 44.8326C99.3282 44.8326 98.0379 44.0939 98.0379 42.4546H98.8882C98.8882 43.5791 99.864 44.0939 100.903 44.0939C101.753 44.0939 102.665 43.8367 102.665 42.8404C102.665 41.9086 101.564 41.78 100.462 41.5224C99.3601 41.2978 98.227 40.9764 98.227 39.7229C98.227 38.3731 99.4861 37.7629 100.745 37.7629C102.161 37.7629 103.232 38.4056 103.295 39.9157H102.414V39.916Z" fill="#AAAAAA"/>
<path d="M117.334 39.916C117.208 38.9201 116.547 38.502 115.603 38.502C114.848 38.502 114.061 38.7915 114.061 39.6588C114.061 40.4946 115.162 40.6232 116.295 40.8801C117.397 41.1054 118.499 41.4909 118.499 42.8404C118.499 44.2544 117.051 44.8326 115.792 44.8326C114.249 44.8326 112.927 44.0939 112.927 42.4546H113.809C113.809 43.5791 114.784 44.0939 115.823 44.0939C116.641 44.0939 117.586 43.8367 117.586 42.8404C117.586 41.9086 116.453 41.78 115.351 41.5224C114.249 41.2978 113.147 40.9764 113.147 39.7229C113.147 38.3731 114.375 37.7629 115.666 37.7629C117.051 37.7629 118.152 38.4056 118.184 39.9157H117.334V39.916Z" fill="#AAAAAA"/>
<path d="M10.7502 2.25288V14.4001H15.0626C15.0626 14.4001 15.4402 14.3682 15.6605 14.304C18.1787 14.0787 19.7841 10.9938 19.9413 8.74437C20.1933 6.33406 18.7451 2.3489 15.1254 2.25288C14.0554 2.22064 10.7502 2.25288 10.7502 2.25288ZM10.7502 15.8141V30.3719H14.6534C14.6534 30.3719 16.8568 30.5324 18.8398 28.8938C20.7916 27.287 21.7987 24.909 21.5787 22.1773C21.4214 19.7348 19.5953 16.264 15.5033 15.8141C13.3312 15.8141 10.7502 15.8141 10.7502 15.8141ZM19.9417 0.838867C23.1841 1.03161 25.2931 2.79886 25.4818 3.02419C27.1501 4.59835 27.654 6.97641 27.2445 9.25846C26.7093 13.0828 22.0506 14.6895 22.0506 14.6895C25.9538 15.1714 28.8815 18.1602 29.3219 21.3738C29.7002 24.5231 28.5667 27.3193 26.017 29.2793C23.4357 31.2396 19.6585 31.8826 17.6123 31.8826C17.6123 31.8826 1.81038 31.8826 0.928886 31.8826C0.928886 31.3682 0.928886 30.9827 0.928886 30.5328C3.06911 30.5647 3.3214 30.5647 3.3214 29.6973C3.28982 26.4193 3.3214 3.53863 3.3214 2.92747C3.3214 2.22064 2.97505 2.1884 0.928886 2.1884C0.897307 1.64242 0.960466 0.838867 0.960466 0.838867H19.9417V0.838867Z" fill="#AAAAAA"/>
<path d="M45.6905 2.50975C43.6131 3.92376 42.1649 7.16986 41.4725 9.86892C40.3707 13.9501 40.5911 18.7707 41.6929 23.7196C42.826 28.6684 45.9421 30.4038 47.7995 30.8219C51.2623 31.6251 53.5285 29.5684 54.7563 27.6725C57.1488 23.9772 57.7468 16.3608 56.9913 11.9901C56.2989 7.94117 55.2286 5.11315 53.1509 3.21693C50.8212 1.12798 47.4847 1.28883 45.6905 2.50975ZM64.3569 21.727C62.9091 26.1299 60.013 28.8938 56.6765 30.6929C52.3006 33.1032 46.0369 33.4891 41.6613 30.8219C38.9544 29.1825 32.0607 24.8122 32.9731 14.4968C33.1623 12.2792 34.2638 6.7199 40.3391 2.54234C44.4943 -0.221553 50.4752 -1.0251 56.0466 1.61018C64.7349 5.65912 66.5603 15.6532 64.3569 21.727Z" fill="#AAAAAA"/>
<path d="M89.8855 2.28479C89.9171 4.59837 89.8855 9.38709 89.8855 9.38709L88.784 9.41933C88.1228 6.43045 86.7066 3.85965 84.2828 2.67062C81.9531 1.51383 78.4275 0.935607 76.1301 2.99197C74.7763 4.21324 74.5875 5.46675 75.0598 6.88077C75.8785 8.96972 78.1446 9.61242 79.9076 10.4156C81.3555 10.9942 84.4404 12.0224 84.4404 12.0224C87.8716 13.2436 91.6804 15.6217 92.7194 19.5746C93.1914 21.2778 93.1914 23.2059 92.8135 24.9412C91.9632 28.7974 89.5398 29.7296 88.1548 30.6933C87.4621 31.1755 80.9776 33.7144 73.1712 31.1114C71.5657 30.5647 69.7084 29.922 69.7084 29.922V21.2774C69.7084 21.2774 70.5583 21.3093 70.9043 21.3093C71.4398 22.6911 71.9121 24.3619 73.0452 26.0332C75.6893 29.9539 79.4353 31.1429 83.5589 30.243C85.1955 29.8575 86.9901 28.7004 87.4621 26.965C88.06 25.0043 87.8712 21.7589 82.0794 19.5736C77.8927 17.6132 72.636 16.81 70.1491 12.0539C69.1732 9.38639 69.4568 4.75887 72.6673 2.50907C75.9097 0.259615 79.0574 -0.254476 82.8662 0.259615C86.6434 0.806646 87.6505 1.32074 89.8855 2.28479Z" fill="#AAAAAA"/>
<path d="M117.46 2.28479C117.492 4.59837 117.46 9.38709 117.46 9.38709L116.359 9.41933C115.697 6.43045 114.281 3.85965 111.857 2.67062C109.528 1.51383 106.002 0.935607 103.704 2.99197C102.35 4.21324 102.162 5.46675 102.634 6.88077C103.453 8.96972 105.719 9.61242 107.482 10.4156C108.93 10.9942 112.015 12.0224 112.015 12.0224C115.446 13.2436 119.255 15.6217 120.294 19.5746C120.766 21.2778 120.766 23.2059 120.388 24.9412C119.538 28.7974 117.114 29.7296 115.729 30.6933C115.037 31.1755 108.552 33.7144 100.746 31.1114C99.1403 30.5647 97.2833 29.922 97.2833 29.922V21.2774C97.2833 21.2774 98.1332 21.3093 98.4792 21.3093C99.0143 22.6911 99.4867 24.3619 100.62 26.0332C103.264 29.9539 107.01 31.1429 111.134 30.243C112.77 29.8575 114.565 28.7004 115.037 26.965C115.635 25.0043 115.446 21.7589 109.654 19.5736C105.468 17.6132 100.211 16.81 97.724 12.0539C96.7482 9.38639 97.0313 4.75887 100.274 2.50907C103.485 0.259615 106.632 -0.254476 110.41 0.259615C114.218 0.806646 115.225 1.32074 117.46 2.28479Z" fill="#AAAAAA"/>
</svg>
