<svg width="272" height="45" viewBox="0 0 272 45" fill="none" xmlns="http://www.w3.org/2000/svg">
<path fill-rule="evenodd" clip-rule="evenodd" d="M21.8982 41.0923C12.3768 41.0923 4.24966 32.2328 4.24966 22.5694C4.24966 12.9417 12.2067 3.90624 21.8298 3.90624C28.1556 3.90624 32.7106 7.04584 36.418 11.9648H41.0762C39.6819 9.38302 38.1859 7.01153 35.9077 5.16207C31.9968 1.91807 26.93 0 21.8982 0C9.8267 0 0 10.2212 0 22.5351C0 34.8832 9.96337 45 21.9665 45C26.8631 45 31.658 43.152 35.5006 40.0467C37.9155 38.0586 39.615 35.4768 41.2477 32.8249H36.5895C32.9156 37.7439 28.224 41.0923 21.8982 41.0923ZM70.1841 17.546C67.2603 13.6741 63.2811 11.2325 58.351 11.2325C49.5101 11.2325 42.2334 18.5945 42.2334 27.6643C42.2334 36.7326 49.545 44.1633 58.351 44.1633C63.4861 44.1633 67.0554 41.9648 70.1841 37.9184V43.4295H74.0267V11.9991H70.1841V17.546V17.546ZM58.1475 40.5345C51.3797 40.5345 46.0411 34.4999 46.0411 27.6986C46.0411 20.9302 51.3463 14.8613 58.1475 14.8613C64.9138 14.8613 70.1841 20.9317 70.1841 27.6986C70.1841 34.4999 64.8789 40.5345 58.1475 40.5345ZM78.6849 43.4295H82.8008V0.905343H78.6849V43.4295ZM98.3397 38.4404L87.9344 11.9991H83.8534L96.3334 43.4295H100.481L112.928 11.9991H108.915L98.3397 38.4404V38.4404ZM114.627 43.4295H118.742V11.9991H114.627V43.4295ZM114.627 7.95267H118.742V0.905343H114.627V7.95267ZM136.459 11.231C132.581 11.231 129.828 13.325 127.278 16.1156V11.9991H123.468V43.4295H127.514V24.2771C127.481 19.2195 131.561 14.8598 136.526 14.8598C142.747 14.8598 145.875 20.4067 145.875 26.1281V43.431H149.683V26.1281C149.685 17.9651 145.028 11.231 136.459 11.231V11.231ZM187.872 0.905343L169.169 25.2899V0.905343H165.123V43.4295H169.169V31.7436L174.474 24.9766L187.974 43.4295H193.11L177.058 21.6267L193.11 0.905343H187.872ZM194.605 43.4295H198.619V0.905343H194.605V43.4295ZM231.84 19.9175C229.051 14.5794 223.474 11.231 217.59 11.231C208.819 11.231 201.404 18.7317 201.404 27.7314C201.404 36.7997 208.886 44.1618 217.662 44.1618C221.842 44.1618 225.959 42.4525 228.983 39.4874C230.821 37.7081 231.908 35.4753 232.892 33.1381H228.576C226.398 37.4993 222.555 40.533 217.589 40.533C214.565 40.533 211.606 39.2771 209.363 37.1488C207.048 34.9876 206.029 32.3342 205.586 29.1961H233.846C233.848 25.9178 233.404 22.7782 231.84 19.9175ZM205.724 25.5688C206.951 19.6744 211.471 14.8598 217.662 14.8598C222.864 14.8598 228.441 18.1396 229.665 25.5688H205.724ZM236.84 43.4295H240.884V11.9991H236.84V43.4295ZM236.84 8.09288H240.884V0.905343H236.84V8.09288V8.09288ZM258.671 11.231C254.724 11.231 251.97 13.325 249.385 16.1156V11.9991H245.509V43.4295H249.59V24.2771C249.557 19.1851 253.739 14.8598 258.736 14.8598C264.927 14.8598 268.192 20.4067 268.192 26.1281V43.431H272V26.1281C272 17.9651 267.272 11.231 258.671 11.231V11.231Z" fill="#AAAAAA"/>
</svg>
