<svg width="193" height="45" viewBox="0 0 193 45" fill="none" xmlns="http://www.w3.org/2000/svg">
<path d="M115.704 27.5715H92.7322C93.0475 29.5508 93.948 31.1138 95.3625 32.3005C96.8181 33.4673 98.6688 34.0452 100.889 34.0607C103.552 34.0562 106.342 33.1972 107.646 31.2887H115.196C113.909 34.8156 110.508 37.7204 108.417 38.71C106.335 39.7241 103.839 40.2111 100.967 40.2111C96.5201 40.2067 92.8855 38.8274 90.0824 36.082C87.2857 33.3146 85.882 29.8674 85.8842 25.7272C85.8842 21.4697 87.2922 17.9384 90.078 15.1377C92.8704 12.3348 96.3754 10.9289 100.587 10.9289C105.074 10.9289 108.728 12.3348 111.516 15.1333C114.332 17.9295 115.742 21.6291 115.742 26.2431L115.704 27.5715ZM108.622 22.0653C108.149 20.5465 107.236 19.2956 105.824 18.3568C104.439 17.3871 102.8 16.9044 100.96 16.9111C98.9669 16.9155 97.2111 17.4424 95.7124 18.5229C94.7535 19.1915 93.866 20.3738 93.0799 22.0653H108.622ZM156.437 22.4992C156.36 30.8969 153.304 36.0754 151.36 38.8473C149.404 41.6369 147.266 43.262 146.817 43.5786C146.087 44.0923 146.709 45.1594 147.415 44.9779C152.749 43.6096 158.58 43.1513 158.58 43.1513C158.58 43.1513 163.331 43.2576 165.149 37.2466C166.333 33.3367 168.175 27.6711 168.175 22.4992C168.175 17.3273 166.331 11.6617 165.149 7.75181C163.331 1.74082 158.58 1.84709 158.58 1.84709C158.58 1.84709 152.749 1.3888 147.415 0.0205497C146.709 -0.160998 146.087 0.906146 146.817 1.41979C147.266 1.73639 149.404 3.35925 151.36 6.15109C153.304 8.92522 156.36 14.1015 156.437 22.4992ZM183.052 22.4992C183.13 30.8969 186.186 36.0754 188.129 38.8473C190.086 41.6369 192.224 43.262 192.673 43.5786C193.403 44.0923 192.781 45.1594 192.075 44.9779C186.741 43.6096 180.91 43.1513 180.91 43.1513C180.91 43.1513 176.159 43.2576 174.34 37.2466C173.157 33.3367 171.315 27.6711 171.315 22.4992C171.315 17.3273 173.159 11.6617 174.34 7.75181C176.159 1.74082 180.91 1.84709 180.91 1.84709C180.91 1.84709 186.741 1.3888 192.075 0.0205497C192.781 -0.160998 193.403 0.906146 192.673 1.41979C192.224 1.73639 190.086 3.35925 188.129 6.15109C186.186 8.92522 183.132 14.1015 183.052 22.4992ZM43.2282 40.2111C40.0342 40.2111 37.4535 39.5182 35.4969 38.1411C33.5382 36.7728 32.1518 34.8422 31.3462 32.3758C30.7891 30.6799 30.4867 27.5582 30.4954 23.0593V11.5931H37.7105V24.9744C37.6932 27.6157 37.8768 29.4644 38.2655 30.4961C38.6542 31.5301 39.2568 32.3249 40.1098 32.8983C40.9456 33.454 42.0059 33.7618 43.2282 33.7662C44.4505 33.7618 45.5109 33.454 46.3466 32.8983C47.1997 32.3249 47.8022 31.5301 48.1909 30.4961C48.5796 29.4644 48.7632 27.6157 48.7459 24.9744V11.5931H55.9611V23.0593C55.9697 27.5582 55.6674 30.6799 55.1102 32.3758C54.3047 34.84 52.9182 36.7728 50.9595 38.1411C49.0029 39.5182 46.4222 40.2111 43.2282 40.2111ZM121.688 11.5975H113.84L124.495 37.1536L120.88 45H128.86L144.253 11.5975H136.274L128.616 28.2135L121.688 11.5975ZM7.2173 16.0366L7.21298 1.8161H0V39.786H7.21514L7.2173 23.0837H20.8313V39.786H28.0464V1.8161H20.8313V16.0366H7.2173ZM76.2157 1.8161H83.4309V39.786H76.2157V1.8161ZM65.6273 25.2623V39.775H58.4122V11.5887H64.6706V14.4735C66.5495 10.6898 71.0824 10.1584 73.7646 11.8256V18.2683C73.0908 17.9007 70.7391 16.7384 68.275 18.2882C66.1823 19.6055 65.6273 22.0365 65.6273 25.2623Z" fill="#AAAAAA"/>
</svg>
