<svg width="126" height="45" viewBox="0 0 126 45" fill="none" xmlns="http://www.w3.org/2000/svg">
<path d="M27.9069 0L20.7101 27.6586L13.3327 0H0.0185547L14.0526 44.3312H27.3675L39.0627 7.9445H124.839L125.2 0H27.9069Z" fill="#AAAAAA"/>
<path d="M110.118 23.1055C106.825 21.8774 106.479 21.0275 106.479 20.0837C106.479 19.1391 107.865 18.0062 109.945 18.0062C112.023 18.0062 114.102 19.2343 114.102 20.9335H122.591C122.591 17.9118 119.993 10.6401 110.463 10.6401C100.935 10.6401 97.2975 16.7788 97.6438 20.9335C97.6438 24.4276 100.07 28.4883 110.811 31.9824C114.102 33.2105 114.795 34.6266 114.795 35.5716C114.795 36.515 112.716 37.9323 110.638 37.9323C108.558 37.9323 105.786 36.1371 105.786 34.3435H96.7775C96.7775 37.4596 99.2039 44.92 110.291 44.92C119.82 44.92 124.151 38.593 123.804 34.4379C123.804 27.9209 114.622 24.2384 110.118 23.1055Z" fill="#AAAAAA"/>
<path d="M53.1177 11.679H43.0698L32.6749 44.3532H41.5109L42.5502 39.9149H53.2911L54.6778 44.3532H63.4016L53.1177 11.679ZM44.6288 33.0216L48.0938 20.7446L51.5588 33.0216H44.6288V33.0216Z" fill="#AAAAAA"/>
<path d="M84.5448 28.2998L74.4965 11.679H65.1423V44.3589L74.1502 44.3536V26.7881L84.7181 44.3536H93.5548V11.679H84.5448V28.2998Z" fill="#AAAAAA"/>
</svg>
