<svg width="60" height="60" viewBox="0 0 60 60" fill="none" xmlns="http://www.w3.org/2000/svg">
<path d="M42.5 47.5C39.7386 47.5 37.5 45.2614 37.5 42.5C37.5 39.7386 39.7386 37.5 42.5 37.5C45.2614 37.5 47.5 39.7386 47.5 42.5C47.5 45.2614 45.2614 47.5 42.5 47.5Z" stroke="white" stroke-width="3" stroke-linecap="round" stroke-linejoin="round"/>
<path d="M17.5 47.5C14.7386 47.5 12.5 45.2614 12.5 42.5C12.5 39.7386 14.7386 37.5 17.5 37.5C20.2614 37.5 22.5 39.7386 22.5 42.5C22.5 45.2614 20.2614 47.5 17.5 47.5Z" stroke="white" stroke-width="3" stroke-linecap="round" stroke-linejoin="round"/>
<path d="M47.5 42.5H52.5V32.5M55 12.5H27.5V42.5M37.5 42.5H22.5M12.5 42.5H7.5V27.5M7.5 27.5H27.5M7.5 27.5L15 15H27.5" stroke="white" stroke-width="3" stroke-linecap="round" stroke-linejoin="round"/>
<path d="M52.5 22.5H42.5" stroke="white" stroke-width="3" stroke-linecap="round" stroke-linejoin="round"/>
</svg>
